{
  "accessors": [
    {
      "bufferView": 2,
      "componentType": 5126,
      "count": 65534,
      "max": [
        0.2335588037967682,
        0.24350109696388245,
        0.1330603063106537
      ],
      "min": [
        -0.2384718954563141,
        -0.13455529510974884,
        -0.12436260282993317
      ],
      "type": "VEC3"
    },
    {
      "bufferView": 2,
      "byteOffset": 786408,
      "componentType": 5126,
      "count": 65534,
      "max": [
        0.9997454881668091,
        0.9994992613792419,
        0.9999296069145203
      ],
      "min": [
        -0.9999418258666992,
        -1.0,
        -0.999472439289093
      ],
      "type": "VEC3"
    },
    {
      "bufferView": 1,
      "componentType": 5126,
      "count": 65534,
      "max": [
        0.64892578125,
        0.328125
      ],
      "min": [
        0.5234375,
        0.03125
      ],
      "type": "VEC2"
    },
    {
      "bufferView": 0,
      "componentType": 5125,
      "count": 70197,
      "type": "SCALAR"
    },
    {
      "bufferView": 2,
      "byteOffset": 1572816,
      "componentType": 5126,
      "count": 65532,
      "max": [
        0.09844951331615448,
        0.14370690286159515,
        0.1361972987651825
      ],
      "min": [
        -0.07563606649637222,
        0.03202094882726669,
        -0.09281014651060104
      ],
      "type": "VEC3"
    },
    {
      "bufferView": 2,
      "byteOffset": 2359200,
      "componentType": 5126,
      "count": 65532,
      "max": [
        0.9999436736106873,
        0.9999828338623047,
        0.9999885559082031
      ],
      "min": [
        -0.9999321699142456,
        -0.9998976588249207,
        -0.9999780654907227
      ],
      "type": "VEC3"
    },
    {
      "bufferView": 1,
      "byteOffset": 524272,
      "componentType": 5126,
      "count": 65532,
      "max": [
        0.6494141221046448,
        0.9874230027198792
      ],
      "min": [
        0.005203499924391508,
        0.013296008110046387
      ],
      "type": "VEC2"
    },
    {
      "bufferView": 0,
      "byteOffset": 280788,
      "componentType": 5125,
      "count": 65532,
      "type": "SCALAR"
    },
    {
      "bufferView": 2,
      "byteOffset": 3145584,
      "componentType": 5126,
      "count": 41321,
      "max": [
        0.10728269815444946,
        0.24452629685401917,
        0.1361972987651825
      ],
      "min": [
        -0.09058211743831635,
        0.038121119141578674,
        -0.0962156429886818
      ],
      "type": "VEC3"
    },
    {
      "bufferView": 2,
      "byteOffset": 3641436,
      "componentType": 5126,
      "count": 41321,
      "max": [
        0.9999131560325623,
        0.9996738433837891,
        0.9999971389770508
      ],
      "min": [
        -0.9999343156814575,
        -0.9976568818092346,
        -0.9998821020126343
      ],
      "type": "VEC3"
    },
    {
      "bufferView": 1,
      "byteOffset": 1048528,
      "componentType": 5126,
      "count": 41321,
      "max": [
        0.650390625,
        0.9579110145568848
      ],
      "min": [
        0.15695349872112274,
        0.03125
      ],
      "type": "VEC2"
    },
    {
      "bufferView": 0,
      "byteOffset": 542916,
      "componentType": 5125,
      "count": 41325,
      "type": "SCALAR"
    }
  ],
  "asset": {
    "extras": {
      "author": "duyphu (https://sketchfab.com/duyphu)",
      "license": "CC-BY-4.0 (http://creativecommons.org/licenses/by/4.0/)",
      "source": "https://sketchfab.com/3d-models/donald-j-trump-312f4b67863445eda9780f7e52c0fc17",
      "title": "Donald J Trump"
    },
    "generator": "Sketchfab-12.68.0",
    "version": "2.0"
  },
  "bufferViews": [
    {
      "buffer": 0,
      "byteLength": 708216,
      "name": "floatBufferViews",
      "target": 34963
    },
    {
      "buffer": 0,
      "byteLength": 1379096,
      "byteOffset": 708216,
      "byteStride": 8,
      "name": "floatBufferViews",
      "target": 34962
    },
    {
      "buffer": 0,
      "byteLength": 4137288,
      "byteOffset": 2087312,
      "byteStride": 12,
      "name": "floatBufferViews",
      "target": 34962
    }
  ],
  "buffers": [
    {
      "byteLength": 6224600,
      "uri": "scene.bin"
    }
  ],
  "extensionsUsed": [
    "KHR_materials_unlit"
  ],
  "images": [
    {
      "uri": "textures/material_baseColor.png"
    }
  ],
  "materials": [
    {
      "doubleSided": true,
      "extensions": {
        "KHR_materials_unlit": {}
      },
      "name": "material",
      "pbrMetallicRoughness": {
        "baseColorTexture": {
          "index": 0
        },
        "metallicFactor": 0.0
      }
    }
  ],
  "meshes": [
    {
      "name": "Object_0",
      "primitives": [
        {
          "attributes": {
            "NORMAL": 1,
            "POSITION": 0,
            "TEXCOORD_0": 2
          },
          "indices": 3,
          "material": 0,
          "mode": 4
        }
      ]
    },
    {
      "name": "Object_1",
      "primitives": [
        {
          "attributes": {
            "NORMAL": 5,
            "POSITION": 4,
            "TEXCOORD_0": 6
          },
          "indices": 7,
          "material": 0,
          "mode": 4
        }
      ]
    },
    {
      "name": "Object_2",
      "primitives": [
        {
          "attributes": {
            "NORMAL": 9,
            "POSITION": 8,
            "TEXCOORD_0": 10
          },
          "indices": 11,
          "material": 0,
          "mode": 4
        }
      ]
    }
  ],
  "nodes": [
    {
      "children": [
        1
      ],
      "matrix": [
        1.0,
        0.0,
        0.0,
        0.0,
        0.0,
        2.220446049250313e-16,
        -1.0,
        0.0,
        0.0,
        1.0,
        2.220446049250313e-16,
        0.0,
        0.0,
        0.0,
        0.0,
        1.0
      ],
      "name": "Sketchfab_model"
    },
    {
      "children": [
        2
      ],
      "name": "root"
    },
    {
      "children": [
        3
      ],
      "matrix": [
        1.0,
        0.0,
        0.0,
        0.0,
        0.0,
        2.220446049250313e-16,
        1.0,
        0.0,
        0.0,
        -1.0,
        2.220446049250313e-16,
        0.0,
        0.0,
        0.0,
        0.0,
        1.0
      ],
      "name": "GLTF_SceneRootNode"
    },
    {
      "children": [
        4
      ],
      "name": "root_0"
    },
    {
      "children": [
        5,
        6,
        7
      ],
      "matrix": [
        0.9485334812948237,
        0.017306764885298323,
        -0.5258371668990445,
        0.0,
        1.7092188324308414e-09,
        1.0840880625344593,
        0.03568035889348973,
        0.0,
        0.5261218967152085,
        -0.031201985513316932,
        0.9480201481178047,
        0.0,
        -0.0007831614348106086,
        -0.05938221514225006,
        0.24713660776615143,
        1.0
      ],
      "name": "node_id3_1"
    },
    {
      "mesh": 0,
      "name": "Object_5"
    },
    {
      "mesh": 1,
      "name": "Object_6"
    },
    {
      "mesh": 2,
      "name": "Object_7"
    }
  ],
  "samplers": [
    {
      "magFilter": 9729,
      "minFilter": 9987,
      "wrapS": 10497,
      "wrapT": 10497
    }
  ],
  "scene": 0,
  "scenes": [
    {
      "name": "Sketchfab_Scene",
      "nodes": [
        0
      ]
    }
  ],
  "textures": [
    {
      "sampler": 0,
      "source": 0
    }
  ]
}
